# xmcd
#
# Track frame offsets:
#	150
#	10945
#	21570
#	33452
#	46485
#	58497
#	70755
#	83225
#	95995
#	106607
#	119782
#	131932
#	141972
#	151432
#	162922
#	174420
#	186820
#	196607
#	206397
#	215515
#	227250
#	238482
#	248687
#	258667
#	270910
#	282070
#
# Disc length: 3903 seconds
#
# Revision: 1
# Processed by: cddbd v1.4PL0 Copyright (c) Steve Scherf et al.
# Submitted via: CDmax 1.8
#
DISCID=7f0f3d1a
DTITLE=Pee Wee King - Pee Wee King And His Golden West Cowboys, CD #5
DYEAR=1900
DGENRE=
TTITLE0=Oh Mis'rable Love
TTITLE1=Ricochet
TTITLE2=Dragnet
TTITLE3=Deck Of Cards
TTITLE4=Huggin' My Pillow
TTITLE5=Changing Partners
TTITLE6=Bimbo
TTITLE7=Backward, Turn Backward
TTITLE8=In A Garden Of Roses
TTITLE9=The Red Deck Of Cards
TTITLE10=Keep Your Eye On My Darling
TTITLE11=Indian Giver
TTITLE12=Why Don't You All Go Home?
TTITLE13=How Long
TTITLE14=Peek-A-Boo Waltz
TTITLE15=Steel Guitar Rag
TTITLE16=Peaches And Cream
TTITLE17=I Can't Tell A Waltz From A Tango
TTITLE18=Flying Home
TTITLE19=Woodchopper's Ball
TTITLE20=Seven Come Eleven
TTITLE21=Farewell Blues
TTITLE22=Tippin' In
TTITLE23=Melody Of Love
TTITLE24=You Can't Hardly Get Them No More
TTITLE25=Tweedle Dee
EXTD=
EXTT0=
EXTT1=
EXTT2=
EXTT3=
EXTT4=
EXTT5=
EXTT6=
EXTT7=
EXTT8=
EXTT9=
EXTT10=
EXTT11=
EXTT12=
EXTT13=
EXTT14=
EXTT15=
EXTT16=
EXTT17=
EXTT18=
EXTT19=
EXTT20=
EXTT21=
EXTT22=
EXTT23=
EXTT24=
EXTT25=
PLAYORDER=
